<svg xmlns="http://www.w3.org/2000/svg" version="1.1" xmlns:xlink="http://www.w3.org/1999/xlink" width="512" height="512" x="0" y="0" viewBox="0 0 64 64" style="enable-background:new 0 0 512 512" xml:space="preserve" class=""><g><path d="M22.82 8.44c.3.38.47.85.47 1.37v1.25c0 1.1-.79 2.02-1.88 2.19l-1.78.28c-.16.35-.28.63-.42.91L20.3 16c.65.87.55 2.08-.21 2.86l-.85.87c-.76.77-2.04.86-2.9.21l-1.44-1.07c-.35.13-.63.23-.92.34l-.33 1.88a2.192 2.192 0 0 1-2.19 1.89h-1.21a2.2 2.2 0 0 1-2.19-1.89l-.28-1.81c-.33-.17-.61-.28-.87-.42l-1.54 1.08c-.86.65-2.14.55-2.9-.21l-.85-.87-.06-.06v23.53h61.88V11.64c0-1.76-1.43-3.2-3.2-3.2zm23.83 17.67c0 1.18-.85 2.19-2.03 2.36l-2.05.32c-.1.01-.17.09-.2.17-.12.33-.25.65-.39.97-.04.09-.04.19.02.27l1.25 1.71c.69.95.6 2.25-.23 3.09l-.99.99c-.81.83-2.19.93-3.13.23l-1.65-1.23c-.11-.09-.19-.06-.27-.02-.31.14-.62.28-.94.39-.09.03-.15.11-.17.2l-.31 2.08a2.382 2.382 0 0 1-2.37 2.04h-1.38c-1.19 0-2.19-.85-2.37-2.04l-.31-2.09c-.01-.09-.07-.16-.17-.19-.32-.12-.63-.26-.93-.39-.07-.03-.16-.06-.28.02l-1.65 1.23c-.93.69-2.3.6-3.13-.23l-.99-.99c-.82-.84-.92-2.14-.22-3.09l1.25-1.71c.05-.07.06-.18.02-.27-.15-.31-.29-.64-.41-.97-.03-.09-.11-.16-.19-.17l-2.05-.32a2.372 2.372 0 0 1-2.03-2.36v-1.43c0-1.19.85-2.19 2.03-2.37l2.05-.31c.1-.01.17-.07.2-.17.12-.33.26-.65.41-.97.04-.09.03-.19-.02-.26l-1.25-1.72c-.69-.95-.6-2.25.22-3.08l.99-1c.82-.82 2.2-.93 3.13-.23l1.66 1.23c.11.09.19.06.27.02.3-.14.61-.28.93-.38.1-.04.16-.12.17-.2l.32-2.09a2.397 2.397 0 0 1 2.36-2.04h1.38c1.17 0 2.2.87 2.37 2.04l.31 2.09c.02.09.09.16.18.2.31.11.62.25.93.38.07.04.15.06.27-.02l1.65-1.23c.94-.69 2.32-.59 3.13.23l.99 1c.83.83.93 2.13.23 3.08L42 20.59c-.05.07-.06.18-.02.27.15.32.28.64.39.97.03.1.11.16.2.17l2.05.31c1.17.18 2.03 1.17 2.03 2.37z" fill="#000000" opacity="1" data-original="#000000"></path><path d="m44.3 24.42-2.04-.31c-.87-.14-1.6-.74-1.89-1.57-.1-.27-.2-.52-.32-.77-.37-.8-.29-1.73.22-2.43l1.25-1.72c.07-.1.06-.23-.02-.33l-.99-.99c-.13-.14-.22-.12-.33-.03l-1.66 1.24c-.69.52-1.67.61-2.46.22-.23-.11-.48-.21-.74-.3a2.407 2.407 0 0 1-1.55-1.9l-.32-2.09a.26.26 0 0 0-.26-.21h-1.38c-.13 0-.23.1-.26.21l-.31 2.09c-.13.87-.73 1.59-1.56 1.9-.25.09-.49.19-.74.3-.79.38-1.76.3-2.46-.22l-1.65-1.24c-.12-.09-.21-.11-.34.02l-.98 1c-.1.1-.11.23-.03.33l1.25 1.72c.52.7.61 1.63.23 2.42-.13.26-.22.51-.32.78-.3.83-1.02 1.43-1.89 1.57l-2.05.31c-.13.02-.21.13-.21.26v1.43c0 .13.09.23.21.26l2.05.31c.86.14 1.59.74 1.89 1.57.1.27.2.52.32.78.37.79.29 1.73-.23 2.43l-1.25 1.71c-.07.1-.06.25.03.33l.98 1c.13.13.22.11.34.02l1.65-1.24c.41-.31.91-.47 1.42-.47.36 0 .73.09 1.05.23.25.12.49.22.74.32.83.3 1.43 1.02 1.56 1.89l.31 2.08c.02.13.13.22.26.22h1.38c.13 0 .23-.1.26-.22l.32-2.08c.13-.86.73-1.59 1.55-1.89.26-.1.5-.2.74-.31.8-.38 1.77-.3 2.48.22l1.65 1.24c.12.09.2.11.33-.02l.99-1c.09-.09.1-.23.02-.33l-1.25-1.71c-.51-.7-.6-1.64-.22-2.43.12-.26.22-.51.32-.78.29-.83 1.01-1.43 1.89-1.57l2.04-.31c.13-.02.22-.13.22-.26v-1.43a.31.31 0 0 0-.24-.25zm-11.79 6.97c-3.31 0-6-2.69-6-6s2.69-6 6-6 6 2.69 6 6-2.7 6-6 6zM32.51 48.08c-.59 0-1.06.48-1.06 1.06s.47 1.05 1.06 1.05c.58 0 1.05-.47 1.05-1.05s-.48-1.06-1.05-1.06zM24.9 55.93v5.93h-6.43a1.071 1.071 0 0 0 0 2.14h27.05a1.071 1.071 0 0 0 0-2.14h-5.41v-5.93zM2.14 13.57l-.59-.11v2.33l.94-1.28c-.12-.36-.24-.64-.35-.94z" fill="#000000" opacity="1" data-original="#000000"></path><path d="M63.45 44.47H1.57v6.13c0 1.77 1.43 3.2 3.2 3.2h55.48c1.76 0 3.2-1.43 3.2-3.2zm-30.94 7.85a3.184 3.184 0 1 1 0-6.37c1.75 0 3.18 1.43 3.18 3.19s-1.43 3.18-3.18 3.18z" fill="#000000" opacity="1" data-original="#000000"></path><circle cx="32.51" cy="25.39" r="3.86" fill="#000000" opacity="1" data-original="#000000"></circle><path d="M2.4 11.4c.81.13 1.48.68 1.76 1.45.07.22.16.45.27.66.35.74.27 1.6-.21 2.25l-1.08 1.49v.11l.86.87.11.01 1.44-1.07c.38-.29.84-.44 1.31-.44.34 0 .67.07.97.21.2.1.42.19.63.27.77.28 1.32.95 1.44 1.75l.28 1.81c0 .04.04.07.07.07h1.21c.04 0 .07-.03.09-.07l.27-1.81c.13-.8.67-1.47 1.44-1.75.21-.07.43-.17.63-.27.74-.35 1.64-.27 2.29.22l1.43 1.07.87.75-.76-.76.85-.86c.03-.03.03-.07.01-.11l-1.09-1.49c-.48-.65-.55-1.51-.21-2.25.11-.21.19-.44.28-.66.27-.77.94-1.32 1.75-1.45l1.78-.28c.03 0 .06-.03.06-.07V9.8c0-.04-.02-.07-.06-.09l-1.78-.27c-.81-.13-1.48-.68-1.75-1.46-.09-.22-.17-.44-.28-.65-.34-.74-.27-1.6.21-2.25l1.09-1.49c.02-.03.02-.07-.01-.11l-.85-.86-.75-.86.63.85-1.44 1.07c-.65.49-1.55.58-2.28.22-.2-.11-.42-.19-.63-.27a2.23 2.23 0 0 1-1.44-1.75L11.54.06C11.53.02 11.5 0 11.46 0h-1.21c-.03 0-.07.02-.07.06L9.9 1.89c-.12.8-.67 1.47-1.44 1.75-.21.07-.42.16-.63.26-.72.36-1.63.27-2.28-.22L4.11 2.61l-.87-.74.76.75-.86.87c-.02.03-.03.07 0 .11l1.08 1.49c.47.65.55 1.51.21 2.25-.11.21-.19.43-.27.66-.28.77-.95 1.32-1.76 1.45l-1.77.27c-.04.01-.08.04-.08.08v1.25c0 .04.03.07.07.07zm8.46-6.32c2.94 0 5.34 2.4 5.34 5.34 0 2.96-2.4 5.36-5.34 5.36a5.36 5.36 0 0 1-5.36-5.36c0-2.94 2.41-5.34 5.36-5.34z" fill="#000000" opacity="1" data-original="#000000"></path><path d="M10.86 13.64a3.216 3.216 0 1 0-.012-6.432 3.216 3.216 0 0 0 .012 6.432z" fill="#000000" opacity="1" data-original="#000000"></path></g></svg>