<svg xmlns="http://www.w3.org/2000/svg" version="1.1" xmlns:xlink="http://www.w3.org/1999/xlink" width="512" height="512" x="0" y="0" viewBox="0 0 512 512" style="enable-background:new 0 0 512 512" xml:space="preserve" class=""><g><path fill-rule="evenodd" d="M453.62 72.64H99.91c-23.33 0-42.38 19.08-42.38 42.38v181.64h46.74C95.6 279.88 91 261.17 91 241.95c0-65.88 53.43-119.31 119.31-119.31s119.34 53.43 119.34 119.31c0 19.73-4.79 38.32-13.27 54.71h179.6V115.02c0-23.3-19.08-42.38-42.38-42.38zM206.84 415.63h53.55v-21.6h32.77v21.6h53.55v23.73H206.85v-23.73zm3.49-278.99c58.17 0 105.34 47.14 105.34 105.31S268.5 347.29 210.33 347.29c-25.88 0-49.58-9.35-67.92-24.83l.85.85-30.98 30.98 11.76 11.74-62.48 62.48c-10.38 10.37-27.38 10.37-37.76 0-10.4-10.4-10.4-27.38 0-37.79l62.45-62.45 11.76 11.74 30.98-30.98.85.85c-15.51-18.34-24.83-42.04-24.83-67.92 0-58.17 47.14-105.31 105.31-105.31zm-39.49 120.84c-3.32 1.93-7.6.79-9.52-2.55-1.93-3.34-.79-7.6 2.52-9.55l21.43-12.36v-19.3c0-2.83 1.67-5.27 4.08-6.38l32.12-18.54c3.34-1.93 7.6-.77 9.52 2.55 1.93 3.34.77 7.63-2.58 9.52l-29.14 16.84v19.33h-.03c0 2.41-1.25 4.76-3.49 6.04l-24.92 14.4zm-7.4 45.3v-13.89c0-3.88 3.15-7 7-7s7 3.12 7 7v22.48c4.02 1.9 8.22 3.49 12.59 4.68v-43.82c0-3.85 3.15-7 7-7s7 3.15 7 7v46.29c4.22.34 8.39.34 12.59 0v-81.81c0-3.85 3.15-7 7-7s7 3.15 7 7v79.34c4.37-1.19 8.59-2.75 12.61-4.68v-95.33c0-3.85 3.12-7 7-7s7 3.15 7 7v86.74c18.17-14.03 29.91-36.06 29.91-60.83 0-42.41-34.38-76.79-76.82-76.79s-76.79 34.38-76.79 76.79c0 24.77 11.71 46.8 29.91 60.83zm-5.61 77.24h295.8c23.3 0 42.38-19.08 42.38-42.38v-26.99H307.9c-36.99 52.44-109.22 66.56-163.16 30.95l-12.67 12.67 25.77 25.74z" fill="#000000" opacity="1" data-original="#000000" class=""></path></g></svg>