<svg
  xmlns="http://www.w3.org/2000/svg"
  version="1.1"
  xmlns:xlink="http://www.w3.org/1999/xlink"
  width="512"
  height="512"
  x="0"
  y="0"
  viewBox="0 0 512 512"
  style="enable-background: new 0 0 512 512"
  xml:space="preserve"
  class=""
>
  <g>
    <path
      d="M503.808 84.337a27.854 27.854 0 0 0-19.758-8.221h-22.238c32.954-77.964 29.921-93.217-39.154 0H27.95A28.069 28.069 0 0 0 0 104.066v292.766a28.019 28.019 0 0 0 27.95 27.95h181.193v45.44H194.2a15.062 15.062 0 0 0-15.024 15v15H332.82v-15a15.038 15.038 0 0 0-15-15h-14.934v-45.44H484.05a27.969 27.969 0 0 0 27.95-27.95V104.066a27.88 27.88 0 0 0-8.192-19.729zM266.29 395.755h-20.552a7 7 0 0 1 0-14h20.552a7 7 0 0 1 0 14zM498 352.7H14V104.066A14.035 14.035 0 0 1 27.95 90.12h384.429c-15.073 20.709-32.833 45.826-53.537 75.742l49.267 28.461c19-40.355 35.278-75.664 47.693-104.2h28.248a14.031 14.031 0 0 1 9.865 4.11 13.886 13.886 0 0 1 4.085 9.833zM183.631 214.562l55.276 60.776v38.324h-48.445l-52.98-58.252 37.134-40.848a6.134 6.134 0 0 1 2.013-1.5 6.31 6.31 0 0 1 2.5-.482 6.21 6.21 0 0 1 2.494.482 6.134 6.134 0 0 1 2.008 1.5zm-60.747 45.553 48.7 53.547H52.64v-38.324l37.531-41.273a6.137 6.137 0 0 1 2.013-1.5 6.326 6.326 0 0 1 2.494-.482 6.229 6.229 0 0 1 2.5.482 6.137 6.137 0 0 1 2.013 1.5l23.641 25.966zM52.64 254.56l27.213-29.906a20.1 20.1 0 0 1 22.961-4.876 20.04 20.04 0 0 1 6.718 4.876l18.51 20.353 36.228-39.856a20.144 20.144 0 0 1 6.746-4.876 20.25 20.25 0 0 1 16.243 0 20.331 20.331 0 0 1 6.718 4.876l44.93 49.409V132.81H52.64zm39.06-97.712a12.9 12.9 0 1 1-12.9 12.9 12.945 12.945 0 0 1 12.9-12.9zm240.749 39.657L393.907 232c-3.969 28.461-42.01 81.072-107.576 51.081 44.051-24.071 18.681-69.454 46.12-86.576zm69.166 10.205.51.255c-1.672 3.544-3.373 7.144-5.073 10.744l-52.895-30.53c2.267-3.316 4.507-6.6 6.717-9.808a3.709 3.709 0 0 0 .426.284z"
      fill="#000000"
      opacity="1"
      data-original="#000000"
      class=""
    ></path>
  </g>
</svg>
