<svg xmlns="http://www.w3.org/2000/svg" version="1.1" xmlns:xlink="http://www.w3.org/1999/xlink" width="512" height="512" x="0" y="0" viewBox="0 0 72 72" style="enable-background:new 0 0 512 512" xml:space="preserve" class=""><g><path d="M64.9 6.7H7.1c-2.3 0-4.1 1.8-4.1 4v37.5c0 2.2 1.8 4.1 4.1 4.1H65c2.2 0 4.1-1.8 4.1-4.1V10.7c-.1-2.2-1.9-4-4.2-4zM36 46c-9.1 0-16.6-7.4-16.6-16.6 0-9.1 7.4-16.6 16.6-16.6 9.1 0 16.6 7.4 16.6 16.6S45.1 46 36 46z" fill="#000000" opacity="1" data-original="#000000"></path><path d="M43.5 29.5c0 1-.5 1.9-1.4 2.5l-8.3 5c-.5.3-1 .4-1.5.4s-1-.1-1.4-.4c-.9-.5-1.5-1.5-1.5-2.5v-10c0-1 .5-2 1.5-2.5.9-.5 2-.5 2.9 0l8.3 5c.9.5 1.4 1.4 1.4 2.5zM69 61.5c0 .5-.4 1-1 1H20.1c-.6 1.7-2.4 2.9-4.7 2.9-2.2 0-4.1-1.2-4.7-2.9H4.9c-.6 0-1-.5-1-1 0-.6.4-1 1-1h5.8c.5-1.7 2.4-2.9 4.7-2.9s4.1 1.2 4.7 2.9H68c.6 0 1 .4 1 1z" fill="#000000" opacity="1" data-original="#000000"></path></g></svg>