<svg xmlns="http://www.w3.org/2000/svg" version="1.1" xmlns:xlink="http://www.w3.org/1999/xlink" width="512" height="512" x="0" y="0" viewBox="0 0 66 66" style="enable-background:new 0 0 512 512" xml:space="preserve" class=""><g><path d="M50.6.5h-47C1.9.5.5 1.9.5 3.6v6.1h53.3V3.6c0-1.7-1.4-3.1-3.2-3.1zM7.6 7c-1 0-1.9-.8-1.9-1.9s.8-1.9 1.9-1.9 1.9.8 1.9 1.9S8.7 7 7.6 7zm7.5 0c-1 0-1.9-.8-1.9-1.9s.8-1.9 1.9-1.9c1 0 1.9.8 1.9 1.9S16.1 7 15.1 7zm7.4 0c-1 0-1.9-.8-1.9-1.9s.8-1.9 1.9-1.9c1 0 1.9.8 1.9 1.9S23.5 7 22.5 7zm26-.9H29.8c-.6 0-1-.4-1-1s.4-1 1-1h18.7c.6 0 1 .4 1 1s-.4 1-1 1zM.5 11.7v38.9c0 1.7 1.4 3.1 3.1 3.1H37v-27c0-2.9 2.3-5.2 5.2-5.2h11.6v-9.8zm19.8 6.6c-1-.9.3-2.4 1.3-1.5l4.1 3.6c.2.2.3.5.3.8s-.1.6-.3.8l-4.1 3.6c-1 .9-2.3-.7-1.3-1.5l3.3-2.8zm-6.9 7.2 3.6-9.4c.2-.5.8-.8 1.3-.6s.8.8.6 1.3l-3.6 9.4c-.5 1.2-2.4.5-1.9-.7zm-6.7-5.1 4.1-3.6c.4-.4 1-.3 1.4.1s.3 1-.1 1.4l-3.3 2.8 3.3 2.8c.4.4.5 1 .1 1.4s-1 .5-1.4.1l-4.1-3.6c-.2-.2-.3-.5-.3-.8 0-.1.1-.4.3-.6zm27.4 25.9H7.4c-.5 0-1-.4-1-1 0-.5.5-1 1-1h26.7c.6 0 1 .5 1 1 0 .6-.5 1-1 1zm0-6.8H7.4c-.5 0-1-.4-1-1 0-.5.5-1 1-1h26.7c.6 0 1 .5 1 1 0 .6-.5 1-1 1zm0-6.8H7.4c-.5 0-1-.4-1-1s.5-1 1-1h26.7c.6 0 1 .4 1 1s-.5 1-1 1z" fill="#000000" opacity="1" data-original="#000000" class=""></path><path d="M65.5 30.7v-4c0-1.8-1.4-3.2-3.2-3.2H42.2c-1.8 0-3.2 1.4-3.2 3.2v4zm-16.3-3.6h6.2c.6 0 1 .4 1 1s-.4 1-1 1h-6.2c-.6 0-1-.4-1-1 0-.5.4-1 1-1zM52.3 46.7c1.2 0 2.2-1 2.2-2.2s-1-2.2-2.2-2.2c-1.2 0-2.2 1-2.2 2.2 0 .6.2 1.1.6 1.6.4.4 1 .6 1.6.6z" fill="#000000" opacity="1" data-original="#000000" class=""></path><path d="M46.6 45.9c.1.6.4 1.1.7 1.7.2.3.2.8 0 1.1l-.5.7.6.6.7-.5c.3-.2.8-.2 1.1 0 .5.3 1.1.6 1.7.7.4.1.7.4.8.8l.1.9h.9l.2-.9c.1-.4.4-.7.8-.8.6-.1 1.2-.4 1.7-.7.3-.2.8-.2 1.1 0l.7.5.6-.6-.5-.7c-.2-.3-.2-.8 0-1.1.3-.5.6-1.1.7-1.7.1-.4.4-.7.8-.8l.9-.1v-.9l-1-.1c-.4-.1-.7-.4-.8-.8-.1-.6-.4-1.1-.7-1.7-.2-.3-.2-.8 0-1.1l.5-.7-.6-.6-.7.5c-.3.2-.8.2-1.1 0-.5-.3-1.1-.6-1.7-.7-.4-.1-.7-.4-.8-.8l-.1-.9h-.9l-.2.9c-.1.4-.4.7-.8.8-.6.1-1.1.4-1.7.7-.3.2-.8.2-1.1 0l-.5-.6-.6.6.5.7c.2.3.2.8 0 1.1-.3.5-.6 1.1-.7 1.7-.1.4-.4.7-.8.7l-.9.2v.9l.8.2c.4.1.7.4.8.8zm5.7-5.6c2.3 0 4.2 1.9 4.2 4.2s-1.9 4.2-4.2 4.2c-2.3 0-4.2-1.9-4.2-4.2s1.9-4.2 4.2-4.2zM39 58.4v4c0 1.8 1.4 3.2 3.2 3.2h20.1c1.8 0 3.2-1.4 3.2-3.2v-4zm16.4 3.5h-6.2c-.6 0-1-.4-1-1s.4-1 1-1h6.2c.6 0 1 .4 1 1s-.5 1-1 1z" fill="#000000" opacity="1" data-original="#000000" class=""></path><path d="M65.5 56.4V32.7H39v23.7zM43.8 42.2l1.1-.2c.1-.4.3-.7.4-1l-.6-.9c-.3-.4-.2-.9.1-1.3l1.8-1.8c.3-.3.9-.4 1.3-.1l.9.6c.3-.2.7-.3 1-.4L50 36c.1-.5.5-.8 1-.8h2.6c.5 0 .9.4 1 .8l.2 1.1c.4.1.7.3 1 .4l.9-.6c.4-.3.9-.2 1.3.1l1.8 1.8c.3.3.4.9.1 1.3l-.6.9c.2.3.3.7.4 1l1.1.2c.5.1.8.5.8 1v2.6c0 .5-.4.9-.8 1l-1.1.2c-.1.4-.3.7-.4 1l.6.9c.3.4.2.9-.1 1.3L58 52c-.3.3-.9.4-1.3.1l-.9-.6c-.3.2-.7.3-1 .4l-.3 1.1c-.1.5-.5.8-1 .8h-2.6c-.5 0-.9-.4-1-.8l-.2-1.1c-.4-.1-.7-.3-1-.4l-.9.6c-.4.3-.9.2-1.3-.1l-1.8-1.8c-.3-.3-.4-.9-.1-1.3l.6-.9c-.2-.3-.3-.7-.4-1l-1.1-.2c-.5-.1-.8-.5-.8-1v-2.6c.1-.5.4-.9.9-1z" fill="#000000" opacity="1" data-original="#000000" class=""></path></g></svg>